<svg width="16" height="25" viewBox="0 0 16 25" fill="none" xmlns="http://www.w3.org/2000/svg">
<path d="M7.99003 7.53333C9.80136 7.53333 10.0274 7.53999 10.738 7.57333C11.448 7.60666 11.9314 7.71799 12.3567 7.88333C12.7967 8.05266 13.1674 8.28199 13.538 8.65199C13.877 8.98526 14.1393 9.38838 14.3067 9.83333C14.4714 10.258 14.5834 10.742 14.6167 11.452C14.648 12.1627 14.6567 12.3887 14.6567 14.2C14.6567 16.0113 14.65 16.2373 14.6167 16.948C14.5834 17.658 14.4714 18.1413 14.3067 18.5667C14.1398 19.0118 13.8774 19.4151 13.538 19.748C13.2047 20.0869 12.8016 20.3492 12.3567 20.5167C11.932 20.6813 11.448 20.7933 10.738 20.8267C10.0274 20.858 9.80136 20.8667 7.99003 20.8667C6.1787 20.8667 5.9527 20.86 5.24203 20.8267C4.53203 20.7933 4.0487 20.6813 3.62336 20.5167C3.17825 20.3496 2.77505 20.0873 2.44203 19.748C2.10297 19.4148 1.84065 19.0116 1.67336 18.5667C1.50803 18.142 1.3967 17.658 1.36336 16.948C1.33203 16.2373 1.32336 16.0113 1.32336 14.2C1.32336 12.3887 1.33003 12.1627 1.36336 11.452C1.3967 10.7413 1.50803 10.2587 1.67336 9.83333C1.84019 9.38811 2.10257 8.98487 2.44203 8.65199C2.77514 8.31281 3.17832 8.05048 3.62336 7.88333C4.0487 7.71799 4.53136 7.60666 5.24203 7.57333C5.9527 7.54199 6.1787 7.53333 7.99003 7.53333ZM7.99003 10.8667C7.10598 10.8667 6.25813 11.2178 5.63301 11.843C5.00789 12.4681 4.6567 13.3159 4.6567 14.2C4.6567 15.084 5.00789 15.9319 5.63301 16.557C6.25813 17.1821 7.10598 17.5333 7.99003 17.5333C8.87409 17.5333 9.72193 17.1821 10.3471 16.557C10.9722 15.9319 11.3234 15.084 11.3234 14.2C11.3234 13.3159 10.9722 12.4681 10.3471 11.843C9.72193 11.2178 8.87409 10.8667 7.99003 10.8667ZM12.3234 10.7C12.3234 10.479 12.2356 10.267 12.0793 10.1107C11.923 9.95446 11.711 9.86666 11.49 9.86666C11.269 9.86666 11.0571 9.95446 10.9008 10.1107C10.7445 10.267 10.6567 10.479 10.6567 10.7C10.6567 10.921 10.7445 11.133 10.9008 11.2892C11.0571 11.4455 11.269 11.5333 11.49 11.5333C11.711 11.5333 11.923 11.4455 12.0793 11.2892C12.2356 11.133 12.3234 10.921 12.3234 10.7ZM7.99003 12.2C8.52046 12.2 9.02917 12.4107 9.40425 12.7858C9.77932 13.1609 9.99003 13.6696 9.99003 14.2C9.99003 14.7304 9.77932 15.2391 9.40425 15.6142C9.02917 15.9893 8.52046 16.2 7.99003 16.2C7.4596 16.2 6.95089 15.9893 6.57582 15.6142C6.20074 15.2391 5.99003 14.7304 5.99003 14.2C5.99003 13.6696 6.20074 13.1609 6.57582 12.7858C6.95089 12.4107 7.4596 12.2 7.99003 12.2Z" fill="#0367F2"/>
</svg>
