<svg width="16" height="17" viewBox="0 0 16 17" fill="none" xmlns="http://www.w3.org/2000/svg">
<path d="M13.6213 13.8346H11.252V10.122C11.252 9.23662 11.234 8.09728 10.0173 8.09728C8.78199 8.09728 8.59332 9.06062 8.59332 10.0566V13.8346H6.22399V6.19995H8.49999V7.24062H8.53066C8.84866 6.64062 9.62199 6.00729 10.7773 6.00729C13.178 6.00729 13.622 7.58729 13.622 9.64395L13.6213 13.8346ZM3.54799 5.15528C2.78532 5.15528 2.17266 4.53795 2.17266 3.77862C2.17266 3.01995 2.78599 2.40328 3.54799 2.40328C4.30799 2.40328 4.92399 3.01995 4.92399 3.77862C4.92399 4.53795 4.30732 5.15528 3.54799 5.15528ZM4.73599 13.8346H2.35999V6.19995H4.73599V13.8346ZM14.8067 0.199951H1.17066C0.51799 0.199951 -0.0100098 0.715951 -0.0100098 1.35262V15.0473C-0.0100098 15.6846 0.51799 16.2 1.17066 16.2H14.8047C15.4567 16.2 15.99 15.6846 15.99 15.0473V1.35262C15.99 0.715951 15.4567 0.199951 14.8047 0.199951H14.8067Z" fill="#0367F2"/>
</svg>
